<svg xmlns="http://www.w3.org/2000/svg" viewBox="0 0 566.9 320.1"><defs><style>.cls-1{isolation:isolate;}.cls-2{fill:#414042;}.cls-3{fill:#ffcc4c;}.cls-4{fill:#004fa3;}.cls-5{fill:#4fb963;}.cls-6{fill:#f15d50;}.cls-15,.cls-6,.cls-9{mix-blend-mode:multiply;}.cls-7{fill:#ef4438;}.cls-8,.cls-9{fill:#f78f35;}.cls-10{fill:#827849;}.cls-11{fill:#ed1c2a;}.cls-12,.cls-15{fill:#00a994;}.cls-13{fill:#2c4071;}.cls-14{fill:#008276;}</style></defs><title>logo_chemp_basic</title><g class="cls-1"><g id="Layer_1" data-name="Layer 1"><polygon class="cls-2" points="211.5 211.9 184 211.9 184 183.2 166.2 183.2 166.2 211.9 166.2 229.7 166.2 258.4 184 258.4 184 229.7 211.5 229.7 211.5 258.4 229.3 258.4 229.3 229.7 229.3 211.9 229.3 183.2 211.5 183.2 211.5 211.9"/><path class="cls-2" d="M104.4,213.7v34.2a20.5,20.5,0,0,0,20.5,20.5h42.4V250.7H124.9a2.7,2.7,0,0,1-2.7-2.7V213.7a2.7,2.7,0,0,1,2.7-2.7h42.4V193.2H124.9A20.5,20.5,0,0,0,104.4,213.7Z" transform="translate(-14.2 -10)"/><path class="cls-2" d="M257.2,213.7v8.2h-0.1v17.8h0.1v8.2a20.5,20.5,0,0,0,20.5,20.5h42.4V250.7H277.8a2.7,2.7,0,0,1-2.7-2.7v-8.2h27.3V221.9H275v-8.2a2.7,2.7,0,0,1,2.7-2.7h42.4V193.2H277.8A20.5,20.5,0,0,0,257.2,213.7Z" transform="translate(-14.2 -10)"/><path class="cls-2" d="M470.9,193.7h-22a20.5,20.5,0,0,0-20.5,20.5v54.8h17.8v-29h24.7a20.6,20.6,0,0,0,20.5-20.6v-5.3A20.6,20.6,0,0,0,470.9,193.7Zm2.7,25.8a2.8,2.8,0,0,1-2.7,2.8H446.2v-8.1a2.7,2.7,0,0,1,2.7-2.7h22a2.8,2.8,0,0,1,2.7,2.8v5.3Z" transform="translate(-14.2 -10)"/><path class="cls-2" d="M394.2,193.1h-8.3a20.4,20.4,0,0,0-11.6,3.6,20.4,20.4,0,0,0-11.6-3.6h-8.3a20.5,20.5,0,0,0-20.5,20.3h0v55.1h17.8V213.6h0a2.7,2.7,0,0,1,2.7-2.7h8.3a2.8,2.8,0,0,1,2.7,2.8h0v54.8h17.8V213.6h0a2.7,2.7,0,0,1,2.7-2.7h8.3a2.8,2.8,0,0,1,2.7,2.8h0v54.8h17.8V213.6h0A20.6,20.6,0,0,0,394.2,193.1Z" transform="translate(-14.2 -10)"/><path class="cls-3" d="M385.1,73.2h0L383.6,75h0Z" transform="translate(-14.2 -10)"/><path class="cls-3" d="M406.6,122.7a88.1,88.1,0,0,0-4.5-11.6H402a88,88,0,0,1,8.2,37.2h10a98.1,98.1,0,0,0-4.2-28.6Z" transform="translate(-14.2 -10)"/><path class="cls-4" d="M322,43V10c-76.4,0-138.6,62.2-138.6,138.6h44.7a93.4,93.4,0,0,1,19.7-57.4l-9.3-7.2A105,105,0,0,1,322,43Z" transform="translate(-14.2 -10)"/><path class="cls-5" d="M340.3,79.2a72.2,72.2,0,0,0-50.6,5.3l10.5,20.8a48.6,48.6,0,0,1,47.6,2.2l12.4-19.7a71.7,71.7,0,0,0-19.9-8.6h0Z" transform="translate(-14.2 -10)"/><path class="cls-6" d="M416,119.8l6-1.8a104.4,104.4,0,0,0-32.8-49.5l-4,4.8A97.9,97.9,0,0,1,416,119.8Z" transform="translate(-14.2 -10)"/><path class="cls-3" d="M408.8,107.9l-6.7,3.2a88.1,88.1,0,0,1,4.5,11.6l9.4-2.9a97.9,97.9,0,0,0-30.8-46.6l-1.5,1.8A96,96,0,0,1,408.8,107.9Z" transform="translate(-14.2 -10)"/><path class="cls-7" d="M408.8,107.9l-6.7,3.2a88.1,88.1,0,0,1,4.5,11.6l9.4-2.9a97.9,97.9,0,0,0-30.8-46.6l-1.5,1.8A96,96,0,0,1,408.8,107.9Z" transform="translate(-14.2 -10)"/><path class="cls-8" d="M378.7,80.9l4.9-5.8a95.6,95.6,0,0,0-37.2-19.2l-3.6,13.8a81.2,81.2,0,0,1,22.7,9.8l-5.2,8.3a71.8,71.8,0,0,1,26.9,30.4l14.9-7A88.1,88.1,0,0,0,378.7,80.9Z" transform="translate(-14.2 -10)"/><path class="cls-3" d="M378.8,80.8l4.8-5.7h0l-4.9,5.8A88.1,88.1,0,0,1,402,111.1h0.1A88.5,88.5,0,0,0,378.8,80.8Z" transform="translate(-14.2 -10)"/><path class="cls-9" d="M378.8,80.8l4.8-5.7h0l-4.9,5.8A88.1,88.1,0,0,1,402,111.1h0.1A88.5,88.5,0,0,0,378.8,80.8Z" transform="translate(-14.2 -10)"/><path class="cls-5" d="M342.7,69.7l-2.5,9.5a71.7,71.7,0,0,1,19.9,8.6l5.2-8.3A81.2,81.2,0,0,0,342.7,69.7Z" transform="translate(-14.2 -10)"/><path class="cls-10" d="M342.7,69.7l-2.5,9.5a71.7,71.7,0,0,1,19.9,8.6l5.2-8.3A81.2,81.2,0,0,0,342.7,69.7Z" transform="translate(-14.2 -10)"/><path class="cls-3" d="M383.6,75.1l-4.8,5.7a88.5,88.5,0,0,1,23.3,30.3l6.7-3.2A96,96,0,0,0,383.6,75.1Z" transform="translate(-14.2 -10)"/><path class="cls-6" d="M383.6,75.1l-4.8,5.7a88.5,88.5,0,0,1,23.3,30.3l6.7-3.2A96,96,0,0,0,383.6,75.1Z" transform="translate(-14.2 -10)"/><path class="cls-11" d="M383.6,75.1l-4.8,5.7a88.5,88.5,0,0,1,23.3,30.3l6.7-3.2A96,96,0,0,0,383.6,75.1Z" transform="translate(-14.2 -10)"/><path class="cls-12" d="M322,67a81.8,81.8,0,0,1,20.7,2.7l3.6-13.8h0.1l2.5-9.4A106,106,0,0,0,322,43V54.7a93.8,93.8,0,0,0-74.2,36.5l17.4,13.5a71.8,71.8,0,0,1,24.5-20.2l-4.4-8.8A80.8,80.8,0,0,1,322,67Z" transform="translate(-14.2 -10)"/><path class="cls-4" d="M322,54.7V43a105,105,0,0,0-83.5,41l9.3,7.2A93.8,93.8,0,0,1,322,54.7Z" transform="translate(-14.2 -10)"/><path class="cls-13" d="M322,54.7V43a105,105,0,0,0-83.5,41l9.3,7.2A93.8,93.8,0,0,1,322,54.7Z" transform="translate(-14.2 -10)"/><path class="cls-5" d="M340.3,79.2h0l2.5-9.5A81.8,81.8,0,0,0,322,67a80.8,80.8,0,0,0-36.7,8.7l4.4,8.8A72.2,72.2,0,0,1,340.3,79.2Z" transform="translate(-14.2 -10)"/><path class="cls-14" d="M340.3,79.2h0l2.5-9.5A81.8,81.8,0,0,0,322,67a80.8,80.8,0,0,0-36.7,8.7l4.4,8.8A72.2,72.2,0,0,1,340.3,79.2Z" transform="translate(-14.2 -10)"/><path class="cls-9" d="M342.7,69.6h0.1l3.6-13.8h-0.1Z" transform="translate(-14.2 -10)"/><path class="cls-15" d="M342.7,69.6h0.1l3.6-13.8h-0.1Z" transform="translate(-14.2 -10)"/><path class="cls-5" d="M340.2,79.1h0l2.5-9.5h-0.1Z" transform="translate(-14.2 -10)"/><path class="cls-9" d="M340.2,79.1h0l2.5-9.5h-0.1Z" transform="translate(-14.2 -10)"/><path class="cls-15" d="M340.2,79.1h0l2.5-9.5h-0.1Z" transform="translate(-14.2 -10)"/><path class="cls-2" d="M14.2,313.4c0-6.9,4.8-10.3,10.3-10.3a10.7,10.7,0,0,1,5.2,1.2c0.4,0.2.6,0.5,0.1,1.5s-0.6,1-1.1.9a10.9,10.9,0,0,0-4.2-.9c-4.3,0-7.3,3.4-7.3,7.7s2.8,7.7,7.3,7.7a10.9,10.9,0,0,0,4.2-.9c0.4-.2.6-0.2,1.1,0.8s0.3,1.2-.1,1.4a10.7,10.7,0,0,1-5.2,1.3C17.9,323.8,14.2,319.3,14.2,313.4Z" transform="translate(-14.2 -10)"/><path class="cls-2" d="M31.9,316.2c0-4.2,2.7-7.5,7.3-7.5s7.3,3.4,7.3,7.5-2.7,7.5-7.3,7.5S31.9,320.4,31.9,316.2Zm11.7,0c0-2.7-1.6-5-4.4-5s-4.4,2.3-4.4,5,1.6,5,4.4,5S43.6,319,43.6,316.2Z" transform="translate(-14.2 -10)"/><path class="cls-2" d="M48.9,302.9h2.9V323c0,0.5-.6.6-1.5,0.6s-1.5-.2-1.5-0.6V302.9Z" transform="translate(-14.2 -10)"/><path class="cls-2" d="M54.7,302.9h2.9V323c0,0.5-.6.6-1.5,0.6s-1.5-.2-1.5-0.6V302.9Z" transform="translate(-14.2 -10)"/><path class="cls-2" d="M59.9,316.2c0-4.6,2.9-7.5,6.8-7.5s6.8,3.6,6.8,7.8a0.9,0.9,0,0,1-1,1.1H62.9c0.2,2.5,2.5,3.6,4.9,3.6a10.4,10.4,0,0,0,3.4-.7c0.5-.2.7-0.1,1.1,0.9s0.3,1.1-.2,1.4a9.8,9.8,0,0,1-4.2.9C63.4,323.8,59.9,321.5,59.9,316.2ZM70.5,315a3.6,3.6,0,0,0-3.8-3.8,3.8,3.8,0,0,0-3.9,3.8h7.6Z" transform="translate(-14.2 -10)"/><path class="cls-2" d="M86.3,322.1h0a6.1,6.1,0,0,1-4.3,1.7c-4.5,0-6.8-3.4-6.8-7.5s2.7-7.5,6.4-7.5a6.3,6.3,0,0,1,4.7,1.8h0v-1.4h2.9v13.7c0,4-2.1,7.3-6.9,7.3h-4c-0.5,0-.6-0.4-0.6-1.2s0.2-1.3.6-1.3h3.7c2.9,0,4.2-2,4.2-5.1v-0.5Zm-4.1-10.9c-2.4,0-4.1,2.2-4.1,5s1.5,5,4.1,5,4.1-1,4.1-5.2S83.8,311.2,82.2,311.2Z" transform="translate(-14.2 -10)"/><path class="cls-2" d="M91.5,316.2c0-4.6,2.9-7.5,6.8-7.5s6.8,3.6,6.8,7.8a0.9,0.9,0,0,1-1,1.1H94.5c0.2,2.5,2.5,3.6,4.9,3.6a10.4,10.4,0,0,0,3.4-.7c0.5-.2.7-0.1,1.1,0.9s0.3,1.1-.2,1.4a9.8,9.8,0,0,1-4.2.9C94.9,323.8,91.5,321.5,91.5,316.2Zm10.6-1.2a3.6,3.6,0,0,0-3.8-3.8,3.8,3.8,0,0,0-3.9,3.8h7.6Z" transform="translate(-14.2 -10)"/><path class="cls-2" d="M115.1,316.2c0-4.2,2.7-7.5,7.3-7.5s7.3,3.4,7.3,7.5-2.7,7.5-7.3,7.5S115.1,320.4,115.1,316.2Zm11.7,0c0-2.7-1.6-5-4.4-5s-4.4,2.3-4.4,5,1.6,5,4.4,5S126.8,319,126.8,316.2Z" transform="translate(-14.2 -10)"/><path class="cls-2" d="M134,311.6h-2.8v-2.5H134v-2.7a2.9,2.9,0,0,1,3.2-3.2h2.6c0.5,0,.7.4,0.7,1.3s-0.2,1.2-.7,1.2H138c-0.8,0-1.1.7-1.1,1.5v1.9h3c0.5,0,.7.4,0.7,1.3s-0.2,1.2-.7,1.2h-3V323c0,0.5-.6.6-1.5,0.6s-1.5-.2-1.5-0.6V311.6Z" transform="translate(-14.2 -10)"/><path class="cls-2" d="M166.2,323c0,0.4-.5.6-1.5,0.6s-1.5-.2-1.5-0.6v-8.5h-9V323c0,0.4-.5.6-1.5,0.6s-1.5-.2-1.5-0.6V303.5h3v8.4h9v-8.4h3V323Z" transform="translate(-14.2 -10)"/><path class="cls-2" d="M168.5,316.2c0-4.6,2.9-7.5,6.8-7.5s6.8,3.6,6.8,7.8a0.9,0.9,0,0,1-1,1.1h-9.7c0.2,2.5,2.5,3.6,4.9,3.6a10.4,10.4,0,0,0,3.4-.7c0.5-.2.7-0.1,1.1,0.9s0.3,1.1-.2,1.4a9.8,9.8,0,0,1-4.2.9C171.9,323.8,168.5,321.5,168.5,316.2Zm10.6-1.2a3.6,3.6,0,0,0-3.8-3.8,3.8,3.8,0,0,0-3.9,3.8h7.6Z" transform="translate(-14.2 -10)"/><path class="cls-2" d="M186,311.6c-0.5,0-.6-0.4-0.6-1.3s0.2-1.2.6-1.2H191c3.6,0,5.2,1.4,5.2,5.1V323c0,0.5-.6.6-1.4,0.6s-1.5-.2-1.5-0.6h0a12.7,12.7,0,0,1-4.6.9c-2.8,0-5.1-1.5-5.1-4.8s2.5-5,5.7-5a14.9,14.9,0,0,1,3.9.6V314a2.1,2.1,0,0,0-2.4-2.4H186Zm0.5,7.5a2.2,2.2,0,0,0,2.5,2.4,12.4,12.4,0,0,0,4.2-.8v-3.4a13.9,13.9,0,0,0-3.8-.6C187.5,316.6,186.5,317.5,186.5,319.1Z" transform="translate(-14.2 -10)"/><path class="cls-2" d="M198.9,302.9h2.9V323c0,0.5-.6.6-1.5,0.6s-1.5-.2-1.5-0.6V302.9Z" transform="translate(-14.2 -10)"/><path class="cls-2" d="M210,311.6v8.1a1.1,1.1,0,0,0,1.3,1.2h2c0.5,0,.7.3,0.7,1.3s-0.2,1.2-.7,1.2h-2.7c-2,0-3.5-.9-3.5-3.5v-8.3h-2.9v-2.5h2.9v-4.1H210v4.1h3.4c0.5,0,.7.4,0.7,1.3s-0.2,1.2-.7,1.2H210Z" transform="translate(-14.2 -10)"/><path class="cls-2" d="M225.8,313.6c0-1.6-1.5-2.4-3.3-2.4s-3.3.9-3.3,1.9V323c0,0.5-.6.6-1.5,0.6s-1.5-.2-1.5-0.6V302.9h2.9v7.4c0.6-.9,2.5-1.6,4.4-1.6a5,5,0,0,1,5.2,5.2V323c0,0.5-.6.6-1.5,0.6s-1.5-.2-1.5-0.6v-9.4Z" transform="translate(-14.2 -10)"/><path class="cls-2" d="M243.1,323.4a3.7,3.7,0,0,1-2.1-1.2,3.5,3.5,0,0,1-1.1-1.9V303.5h12.8c0.5,0,.7.4,0.7,1.3s-0.2,1.3-.7,1.3h-9.7v5.7h9.1c0.5,0,.6.4,0.6,1.3s-0.2,1.3-.6,1.3h-9.1v5.4a0.8,0.8,0,0,0,.9.9h9.1c0.5,0,.7.4,0.7,1.3s-0.2,1.3-.7,1.3h-9.8Z" transform="translate(-14.2 -10)"/><path class="cls-2" d="M264.9,323.4l-3.4-5-3.4,5h-3.4l5.2-7.3-4.9-7h3.4l3.2,4.9,3.2-4.9H268l-4.9,7,5.1,7.3h-3.4Z" transform="translate(-14.2 -10)"/><path class="cls-2" d="M273.4,329.4c0,0.4-.5.6-1.5,0.6s-1.4-.2-1.4-0.6V309.1h2.9v1.5h0a5.8,5.8,0,0,1,4.7-1.9c3.7,0,6.4,3.3,6.4,7.5s-2.4,7.5-6.8,7.5a6.2,6.2,0,0,1-4.3-1.7h0v7.3Zm4.1-8.2c2.6,0,4.1-2.3,4.1-5s-1.6-5-4.1-5-4.1.9-4.1,4.8S275.7,321.2,277.5,321.2Z" transform="translate(-14.2 -10)"/><path class="cls-2" d="M286.2,316.2c0-4.6,2.9-7.5,6.8-7.5s6.8,3.6,6.8,7.8a0.9,0.9,0,0,1-1,1.1h-9.7c0.2,2.5,2.5,3.6,4.9,3.6a10.4,10.4,0,0,0,3.4-.7c0.5-.2.7-0.1,1.1,0.9s0.3,1.1-.2,1.4a9.8,9.8,0,0,1-4.2.9C289.6,323.8,286.2,321.5,286.2,316.2Zm10.6-1.2a3.6,3.6,0,0,0-3.8-3.8,3.8,3.8,0,0,0-3.9,3.8h7.6Z" transform="translate(-14.2 -10)"/><path class="cls-2" d="M308.2,311.6a3.3,3.3,0,0,0-3.2,3V323c0,0.5-.6.6-1.4,0.6s-1.5-.2-1.5-0.6V309.1H305v2h0a3.8,3.8,0,0,1,3.4-2h2.7c0.5,0,.7.3,0.7,1.3s-0.2,1.2-.7,1.2h-2.9Z" transform="translate(-14.2 -10)"/><path class="cls-2" d="M318.8,311.6v8.1a1.1,1.1,0,0,0,1.3,1.2h2c0.5,0,.7.3,0.7,1.3s-0.2,1.2-.7,1.2h-2.7c-2,0-3.5-.9-3.5-3.5v-8.3H313v-2.5h2.9v-4.1h2.9v4.1h3.4c0.5,0,.7.4,0.7,1.3s-0.2,1.2-.7,1.2h-3.4Z" transform="translate(-14.2 -10)"/><path class="cls-2" d="M347,323.4l-1.6-1.9a8.9,8.9,0,0,1-5.9,2.3c-4,0-6.1-2.2-6.1-5.7s1.8-4.6,4-5.9a7.1,7.1,0,0,1-2-4.4,4.5,4.5,0,0,1,4.8-4.5,4.4,4.4,0,0,1,2.6,8.3l-1.5,1,4.2,5a8.5,8.5,0,0,0,1.1-4.1h2.7a9.7,9.7,0,0,1-2.1,6.2l3.2,3.9H347Zm-8-9.5c-1.4,1-2.9,2.4-2.9,4.2a3.1,3.1,0,0,0,3.4,3.2,6,6,0,0,0,4.2-1.8Zm1.2-8.2a2,2,0,0,0-2.1,2,5,5,0,0,0,1.6,2.9l1-.6a3.1,3.1,0,0,0,1.6-2.3A2.1,2.1,0,0,0,340.3,305.7Z" transform="translate(-14.2 -10)"/><path class="cls-2" d="M372.4,318.2a2.1,2.1,0,0,1-2.1,1.4,2.2,2.2,0,0,1-2.1-1.4l-4.3-9.4h-0.1V323c0,0.4-.5.6-1.5,0.6s-1.5-.2-1.5-0.6V303.5h3.8l5.7,12.5,5.7-12.5h3.7V323c0,0.4-.5.6-1.5,0.6s-1.5-.2-1.5-0.6V308.7h-0.1Z" transform="translate(-14.2 -10)"/><path class="cls-2" d="M382,316.2c0-4.6,2.9-7.5,6.8-7.5s6.8,3.6,6.8,7.8a0.9,0.9,0,0,1-1,1.1H385c0.2,2.5,2.5,3.6,4.9,3.6a10.4,10.4,0,0,0,3.4-.7c0.5-.2.7-0.1,1.1,0.9s0.3,1.1-.2,1.4a9.8,9.8,0,0,1-4.2.9C385.4,323.8,382,321.5,382,316.2Zm10.6-1.2a3.6,3.6,0,0,0-3.8-3.8A3.8,3.8,0,0,0,385,315h7.6Z" transform="translate(-14.2 -10)"/><path class="cls-2" d="M408.4,321.9h0a5.9,5.9,0,0,1-4.7,1.8c-3.7,0-6.4-3.2-6.4-7.5s2.3-7.5,6.8-7.5a6.1,6.1,0,0,1,4.3,1.7h0v-7.5h2.9V323c0,0.5-.6.6-1.5,0.6s-1.5-.2-1.5-0.6v-1.1Zm-4.1-10.7c-2.6,0-4.1,2.3-4.1,5s1.6,5,4.1,5,4.1-.9,4.1-4.9S406.1,311.2,404.3,311.2Z" transform="translate(-14.2 -10)"/><path class="cls-2" d="M416.1,302.7a1.9,1.9,0,0,1,1.9,1.9,1.9,1.9,0,1,1-3.8,0A1.9,1.9,0,0,1,416.1,302.7Zm-1.5,6.1h2.9V323c0,0.5-.6.6-1.4,0.6s-1.5-.2-1.5-0.6V308.8Z" transform="translate(-14.2 -10)"/><path class="cls-2" d="M427.8,311.2c-2.9,0-4.6,2.2-4.6,5s1.6,5,4.5,5a11.6,11.6,0,0,0,3.4-.5c0.4-.1.7-0.1,1.1,0.9s0.2,1.2-.2,1.4a11.6,11.6,0,0,1-4.3.8c-4.4,0-7.5-2.8-7.5-7.5s3.2-7.5,7.5-7.5a11,11,0,0,1,3.9.6c0.5,0.2.6,0.4,0.2,1.4s-0.6,1-1.1.9A12.5,12.5,0,0,0,427.8,311.2Z" transform="translate(-14.2 -10)"/><path class="cls-2" d="M436.4,302.7a1.9,1.9,0,0,1,1.9,1.9,1.9,1.9,0,1,1-3.8,0A1.9,1.9,0,0,1,436.4,302.7Zm-1.5,6.1h2.9V323c0,0.5-.6.6-1.4,0.6s-1.5-.2-1.5-0.6V308.8Z" transform="translate(-14.2 -10)"/><path class="cls-2" d="M441.2,309.1H444v1.4a5.7,5.7,0,0,1,4.4-1.8,5,5,0,0,1,5.2,5.3v9c0,0.5-.6.6-1.5,0.6s-1.5-.2-1.5-0.6v-9.3c0-1.8-1.6-2.5-3.3-2.5s-3.2.9-3.2,1.9V323c0,0.5-.6.6-1.5,0.6s-1.5-.2-1.5-0.6V309.1Z" transform="translate(-14.2 -10)"/><path class="cls-2" d="M455.8,316.2c0-4.6,2.9-7.5,6.8-7.5s6.8,3.6,6.8,7.8a0.9,0.9,0,0,1-1,1.1h-9.7c0.2,2.5,2.5,3.6,4.9,3.6a10.4,10.4,0,0,0,3.4-.7c0.5-.2.7-0.1,1.1,0.9s0.3,1.1-.2,1.4a9.8,9.8,0,0,1-4.2.9C459.2,323.8,455.8,321.5,455.8,316.2Zm10.6-1.2a3.6,3.6,0,0,0-3.8-3.8,3.8,3.8,0,0,0-3.9,3.8h7.6Z" transform="translate(-14.2 -10)"/><path class="cls-2" d="M481.8,302.7a1.9,1.9,0,0,1,1.9,1.9,1.9,1.9,0,1,1-3.8,0A1.9,1.9,0,0,1,481.8,302.7Zm-1.5,6.1h2.9V323c0,0.5-.6.6-1.4,0.6s-1.5-.2-1.5-0.6V308.8Z" transform="translate(-14.2 -10)"/><path class="cls-2" d="M486.6,309.1h2.8v1.4a5.7,5.7,0,0,1,4.4-1.8A5,5,0,0,1,499,314v9c0,0.5-.6.6-1.5,0.6s-1.5-.2-1.5-0.6v-9.3c0-1.8-1.6-2.5-3.3-2.5s-3.2.9-3.2,1.9V323c0,0.5-.6.6-1.5,0.6s-1.5-.2-1.5-0.6V309.1Z" transform="translate(-14.2 -10)"/><path class="cls-2" d="M510,303.5h7.9c4.8,0,6.7,2.6,6.7,6.1s-1.9,6.2-6.6,6.2h-5V323c0,0.4-.5.6-1.5,0.6s-1.5-.2-1.5-0.6V303.5Zm8.1,9.7c2.5,0,3.5-1.2,3.5-3.5s-1.1-3.5-3.6-3.5H513v7.1h5.1Z" transform="translate(-14.2 -10)"/><path class="cls-2" d="M538.8,323c0,0.5-.5.6-1.4,0.6s-1.4-.2-1.4-0.6v-0.6c-0.8.8-2.5,1.4-4.3,1.4s-5-2-5-5.2v-9.4h2.9v9.8c0,1.9,1.4,2.4,3.1,2.4s3.2-.7,3.2-1.7V309.1h2.9V323Z" transform="translate(-14.2 -10)"/><path class="cls-2" d="M541,322.8c-0.4-.3-0.5-0.4-0.2-1.3s0.6-1.1,1.1-.9a12.2,12.2,0,0,0,4,.9c1.9,0,3.3-.7,3.3-2s-0.9-1.5-3.3-2.3-4.8-1.6-4.8-4.5,2.4-4.3,5.5-4.3a9.3,9.3,0,0,1,4.3,1.1c0.4,0.3.6,0.4,0.2,1.4s-0.6,1.1-1.1.9a8,8,0,0,0-3.5-.8c-1.2,0-2.5.6-2.5,1.8s1.2,1.6,3.2,2.4,4.8,1.7,4.8,4.3-2.4,4.5-6.2,4.5A11.9,11.9,0,0,1,541,322.8Z" transform="translate(-14.2 -10)"/><path class="cls-2" d="M555.8,311.6c-0.5,0-.6-0.4-0.6-1.3s0.2-1.2.6-1.2h4.9c3.6,0,5.2,1.4,5.2,5.1V323c0,0.5-.6.6-1.4,0.6s-1.5-.2-1.5-0.6h0a12.7,12.7,0,0,1-4.6.9c-2.8,0-5.1-1.5-5.1-4.8s2.5-5,5.7-5a14.9,14.9,0,0,1,3.9.6V314a2.1,2.1,0,0,0-2.4-2.4h-4.8Zm0.5,7.5a2.3,2.3,0,0,0,2.5,2.4,12.4,12.4,0,0,0,4.2-.8v-3.4a13.8,13.8,0,0,0-3.8-.6C557.3,316.6,556.3,317.5,556.3,319.1Z" transform="translate(-14.2 -10)"/><path class="cls-2" d="M568.7,309.1h2.8v1.4a5.7,5.7,0,0,1,4.4-1.8,5,5,0,0,1,5.2,5.3v9c0,0.5-.6.6-1.5,0.6s-1.5-.2-1.5-0.6v-9.3c0-1.8-1.6-2.5-3.3-2.5s-3.2.9-3.2,1.9V323c0,0.5-.6.6-1.5,0.6s-1.5-.2-1.5-0.6V309.1Z" transform="translate(-14.2 -10)"/></g></g></svg>