<svg id="_π_ÃæÓ_1" data-name="∑π¿ÃæÓ_1" xmlns="http://www.w3.org/2000/svg" viewBox="0 0 432.4 141.7"><defs><style>.cls-1{fill:#006db7;}.cls-2{fill:#5ab43c;}.cls-3{fill:#83868a;}</style></defs><title>logo_medici</title><path class="cls-1" d="M105.5,81.2h-19V31.8L52.8,79.9,19,31.8V81.2H0V0H19.9L52.8,46.9,85.8,0h19.8V81.2Z" transform="translate(0)"/><path class="cls-1" d="M197,19H129.2V31.1h63.4v19H129.2V62.2h67.6v19H110.3V0H197V19Z" transform="translate(0)"/><path class="cls-1" d="M290.9,55.5a24.4,24.4,0,0,1-7.7,18.4,26.1,26.1,0,0,1-18.7,7.3H201.8V30h19V62.2h43.9q7.3,0,7.3-6.8V25.7q0-6.8-7.3-6.8H201.8V0h62.7a26.1,26.1,0,0,1,18.7,7.3,24.4,24.4,0,0,1,7.7,18.4V55.5Z" transform="translate(0)"/><path class="cls-1" d="M314.6,81.2h-19V0h19V81.2Z" transform="translate(0)"/><path class="cls-2" d="M408.7,81.2H345.8a26.3,26.3,0,0,1-18.8-7.3,24.2,24.2,0,0,1-7.7-18.4V25.7a24.2,24.2,0,0,1,7.7-18.4A26.3,26.3,0,0,1,345.8,0h62.9V19H345.8q-7.6,0-7.6,6.8V55.5q0,6.8,7.6,6.8h62.9v19Z" transform="translate(0)"/><path class="cls-2" d="M432.4,81.2h-19V0h19V81.2Z" transform="translate(0)"/><path class="cls-3" d="M0,103.1H9.1v14.4H21.6V103.1h9V141h-9V125.4H9.1V141H0V103.1Z" transform="translate(0)"/><path class="cls-3" d="M38.4,103.1H62.5v7.5H47.5v7H60.2v7.6H47.5v8.1H63V141H38.4V103.1Z" transform="translate(0)"/><path class="cls-3" d="M87.4,132.3H76.2L74,141H64.7l11.8-37.9H87.4L99.2,141H89.6Zm-1.7-7-0.8-3.2c-1-3.8-2-8.3-3-12.2H81.6c-0.9,4-1.9,8.4-2.9,12.2l-0.8,3.2h7.7Z" transform="translate(0)"/><path class="cls-3" d="M102.1,103.1h9.1v30.3H126V141H102.1V103.1Z" transform="translate(0)"/><path class="cls-3" d="M133.7,110.6H123.5v-7.5h29.7v7.5H142.9V141h-9.1V110.6Z" transform="translate(0)"/><path class="cls-3" d="M158,103.1h9.1v14.4h12.5V103.1h9V141h-9V125.4H167.1V141H158V103.1Z" transform="translate(0)"/><path class="cls-3" d="M194.7,122.3c0-12.6,8.5-19.9,18.1-19.9a16.2,16.2,0,0,1,11.5,4.9l-4.8,5.8a9.4,9.4,0,0,0-6.6-3c-4.9,0-8.9,4.4-8.9,11.8s3.5,11.9,8.8,11.9a9.8,9.8,0,0,0,7.2-3.5l4.8,5.7a15.8,15.8,0,0,1-12.4,5.6C202.8,141.7,194.7,135.1,194.7,122.3Z" transform="translate(0)"/><path class="cls-3" d="M247.3,132.3H236.1l-2.2,8.7h-9.3l11.8-37.9h10.9L259,141h-9.6Zm-1.7-7-0.8-3.2c-1-3.8-2-8.3-3-12.2h-0.2c-0.9,4-1.9,8.4-2.9,12.2l-0.8,3.2h7.7Z" transform="translate(0)"/><path class="cls-3" d="M282.5,141l-7-13.4h-4.4V141H262V103.1h13.9c8.1,0,14.8,2.7,14.8,11.9,0,5.6-2.6,9.1-6.5,11l8.5,15H282.5Zm-11.4-20.5h4.1c4.3,0,6.6-1.9,6.6-5.5s-2.3-4.7-6.6-4.7h-4.1v10.2Z" transform="translate(0)"/><path class="cls-3" d="M297,103.1h24.1v7.5H306.2v7h12.7v7.6H306.2v8.1h15.5V141H297V103.1Z" transform="translate(0)"/></svg>