<svg xmlns="http://www.w3.org/2000/svg" viewBox="0 0 295.56 280"><defs><style>.cls-1{fill:#fff;}</style></defs><g id="Layer_2" data-name="Layer 2"><g id="Layer_1-2" data-name="Layer 1"><path class="cls-1" d="M147.78,1A146.77,146.77,0,0,1,294.55,146.78H1A146.78,146.78,0,0,1,147.78,1m0-1A147.78,147.78,0,0,0,0,147.78H295.56A147.78,147.78,0,0,0,147.78,0Z"/><path class="cls-1" d="M147.78,133.22A146.77,146.77,0,0,1,294.55,279H1A146.78,146.78,0,0,1,147.78,133.22m0-1A147.78,147.78,0,0,0,0,280H295.56A147.78,147.78,0,0,0,147.78,132.22Z"/></g></g></svg>