<svg id="Layer_1" data-name="Layer 1" xmlns="http://www.w3.org/2000/svg" viewBox="0 0 601.7 570"><defs><style>.cls-1{fill:#fff;}</style></defs><title>simbol_hee_line</title><g id="Layer_2" data-name="Layer 2"><g id="Layer_1-2" data-name="Layer 1-2"><path class="cls-1" d="M300.8,1A299.6,299.6,0,0,1,600.7,299.8H1A299.6,299.6,0,0,1,300.8,1m0-1C134.7,0,0,134.7,0,300.8H601.7C601.7,134.7,467,0,300.8,0h0Z" transform="translate(0 0)"/><path class="cls-1" d="M300.8,270.2A299.6,299.6,0,0,1,600.7,569H1A299.6,299.6,0,0,1,300.8,270.2m0-1C134.7,269.2,0,403.9,0,570H601.7c0-166.1-134.7-300.8-300.8-300.8h0Z" transform="translate(0 0)"/></g></g></svg>