<svg id="Layer_1" data-name="Layer 1" xmlns="http://www.w3.org/2000/svg" viewBox="0 0 422.2 400"><defs><style>.cls-1{fill:#fff;}</style></defs><title>t_simbol_hee_line</title><g id="Layer_2" data-name="Layer 2"><g id="Layer_1-2" data-name="Layer 1-2"><path class="cls-1" d="M211.1,1A209.9,209.9,0,0,1,421.2,210.1H1A209.9,209.9,0,0,1,211.1,1m0-1C94.5,0,0,94.5,0,211.1H422.2C422.2,94.5,327.7,0,211.1,0h0Z" transform="translate(0 0)"/><path class="cls-1" d="M211.1,189.9A209.9,209.9,0,0,1,421.2,399H1A209.9,209.9,0,0,1,211.1,189.9m0-1C94.5,188.9,0,283.4,0,400H422.2c0-116.6-94.5-211.1-211.1-211.1h0Z" transform="translate(0 0)"/></g></g></svg>